<svg xmlns="http://www.w3.org/2000/svg" aria-hidden="true" style="position:absolute;width:0;height:0;overflow:hidden">
  <defs>
    <symbol id="icon-Vector" viewBox="0 0 40 32">
      <path d="M33.782 1.02a3.668 3.668 0 0 1 5.115.039 3.712 3.712 0 0 1 .135 5.141L19.454 30.817a3.674 3.674 0 0 1-4.074.914 3.675 3.675 0 0 1-1.226-.815L1.17 17.862A3.693 3.693 0 0 1-.001 15.22a3.714 3.714 0 0 1 1.077-2.682 3.664 3.664 0 0 1 4.1-.763 3.68 3.68 0 0 1 1.195.857l10.275 10.325 17.042-21.83c.031-.038.063-.074.098-.109h-.005z"/>
    </symbol>
    <symbol id="icon-Top-Line" viewBox="0 0 583 32">
      <path d="M0 0h583.291v29.165H0V0z"/>
      <path d="M583.291 28.759H0v.81h583.291v-.81z"/>
      <path d="M462.343 14.136v.551h-3.159v-.551h3.159zm-1.288-1.345v3.354h-.583v-3.354h.583zm3.994-.816v4.633h-.583v-3.902l-1.183.43v-.528l1.677-.633h.089zm3.775 0v4.633h-.583v-3.902l-1.183.43v-.528l1.677-.633h.089zm3.63 2.791v-.032a4.578 4.578 0 0 1 .551-2.228c.162-.281.332-.513.506-.696.178-.186.34-.32.49-.402l.126.386a2.134 2.134 0 0 0-.381.392 3.176 3.176 0 0 0-.352.614c-.105.243-.19.524-.255.845s-.097.681-.097 1.082v.044c0 .401.032.763.097 1.085.065.321.15.603.255.848.109.245.227.453.352.623.13.173.255.31.381.411l-.126.354a2.127 2.127 0 0 1-.49-.402 3.73 3.73 0 0 1-.506-.696 4.183 4.183 0 0 1-.393-.978 4.623 4.623 0 0 1-.158-1.253zm5.205-.829v.703c0 .378-.036.696-.101.956-.069.259-.166.468-.292.627s-.279.273-.458.345c-.178.07-.381.104-.604.104-.178 0-.34-.022-.49-.066s-.284-.115-.405-.212c-.117-.099-.219-.228-.304-.386s-.15-.35-.194-.576a4.102 4.102 0 0 1-.065-.791v-.703c0-.378.032-.694.101-.949s.166-.46.296-.614c.126-.156.275-.268.454-.335s.381-.101.604-.101c.178 0 .34.022.49.066a1.138 1.138 0 0 1 .709.579c.081.154.146.343.19.566s.069.486.069.788zm-.592.797v-.896c0-.207-.012-.388-.036-.544a1.676 1.676 0 0 0-.105-.405.757.757 0 0 0-.178-.272.618.618 0 0 0-.243-.152.846.846 0 0 0-.304-.051.838.838 0 0 0-.373.079c-.105.051-.198.132-.271.244s-.126.258-.166.44a3.43 3.43 0 0 0-.057.661v.896c0 .207.012.389.036.547s.061.295.109.411c.049.114.109.208.178.282s.15.129.239.165a.9.9 0 0 0 .308.051.807.807 0 0 0 .377-.082.649.649 0 0 0 .267-.256c.077-.118.13-.269.166-.453.036-.186.053-.407.053-.665zm4.367-.797v.703c0 .378-.036.696-.101.956-.069.259-.166.468-.292.627s-.279.273-.458.345c-.178.07-.381.104-.604.104-.178 0-.34-.022-.49-.066s-.284-.115-.405-.212c-.117-.099-.219-.228-.304-.386s-.15-.35-.194-.576a4.102 4.102 0 0 1-.065-.791v-.703c0-.378.032-.694.101-.949s.166-.46.296-.614c.126-.156.275-.268.454-.335s.381-.101.604-.101c.178 0 .34.022.49.066a1.138 1.138 0 0 1 .709.579c.081.154.146.343.19.566s.069.486.069.788zm-.591.797v-.896c0-.207-.012-.388-.036-.544a1.676 1.676 0 0 0-.105-.405.757.757 0 0 0-.178-.272.618.618 0 0 0-.243-.152.846.846 0 0 0-.304-.051.838.838 0 0 0-.373.079c-.105.051-.198.132-.271.244s-.126.258-.166.44a3.43 3.43 0 0 0-.057.661v.896c0 .207.012.389.036.547s.061.295.109.411c.049.114.109.208.178.282s.15.129.239.165a.9.9 0 0 0 .308.051.807.807 0 0 0 .377-.082.649.649 0 0 0 .267-.256c.077-.118.13-.269.166-.453.036-.186.053-.407.053-.665zm4.366-.797v.703c0 .378-.036.696-.101.956-.069.259-.166.468-.292.627s-.279.273-.458.345c-.178.07-.381.104-.604.104-.178 0-.34-.022-.49-.066s-.284-.115-.405-.212c-.117-.099-.219-.228-.304-.386s-.15-.35-.194-.576a4.102 4.102 0 0 1-.065-.791v-.703c0-.378.032-.694.101-.949s.166-.46.296-.614c.126-.156.275-.268.454-.335s.381-.101.604-.101c.178 0 .34.022.49.066a1.138 1.138 0 0 1 .709.579c.081.154.146.343.19.566s.069.486.069.788zm-.591.797v-.896c0-.207-.012-.388-.036-.544a1.676 1.676 0 0 0-.105-.405.807.807 0 0 0-.174-.272.662.662 0 0 0-.247-.152.846.846 0 0 0-.304-.051.838.838 0 0 0-.373.079c-.105.051-.198.132-.271.244s-.126.258-.166.44a3.43 3.43 0 0 0-.057.661v.896c0 .207.012.389.036.547s.061.295.109.411c.049.114.109.208.178.282s.15.129.239.165a.9.9 0 0 0 .308.051.807.807 0 0 0 .377-.082.683.683 0 0 0 .271-.256c.073-.118.126-.269.162-.453.036-.186.053-.407.053-.665zm2.884 0v.032c0 .462-.053.88-.154 1.253a4.22 4.22 0 0 1-.397.978 3.347 3.347 0 0 1-.506.696c-.178.186-.34.32-.49.402l-.122-.354a2.16 2.16 0 0 0 .377-.399c.126-.169.243-.378.348-.627.109-.247.194-.532.259-.854.065-.325.101-.688.101-1.089v-.044c0-.401-.036-.763-.105-1.085-.069-.325-.162-.611-.271-.858s-.231-.455-.356-.623a2.377 2.377 0 0 0-.352-.396l.122-.358c.15.082.312.216.49.402a3.4 3.4 0 0 1 .506.696c.162.281.292.608.397.981.101.371.154.787.154 1.247zm4.638-2.759v4.633h-.583v-3.902l-1.183.43v-.528l1.677-.633h.089zm3.775 0v4.633h-.583v-3.902l-1.183.43v-.528l1.677-.633h.089zm3.775 0v4.633h-.583v-3.902l-1.183.43v-.528l1.677-.633h.089zm3.135 2.433v.481h-1.543v-.481h1.543zm2.564-2.433v4.633h-.587v-3.902l-1.179.43v-.528l1.673-.633h.093zm3.776 0v4.633h-.587v-3.902l-1.179.43v-.528l1.673-.633h.093zm3.131 2.433v.481h-1.543v-.481h1.543zm2.564-2.433v4.633h-.587v-3.902l-1.179.43v-.528l1.673-.633h.093zm3.775 0v4.633h-.587v-3.902l-1.179.43v-.528l1.673-.633h.093zM381.842 13.184v3.424h-.589v-3.424h.589zm-.633-.909a.36.36 0 0 1 .085-.241c.059-.065.146-.098.26-.098.112 0 .197.033.256.098a.34.34 0 0 1 .092.241c0 .091-.03.169-.092.234-.059.063-.145.095-.256.095-.114 0-.2-.032-.26-.095a.342.342 0 0 1-.085-.234zm2.288 1.64v2.693h-.586v-3.424h.554l.032.731zm-.139.851-.244-.009c.002-.234.037-.45.104-.649.068-.2.162-.374.285-.522a1.269 1.269 0 0 1 1.004-.465c.168 0 .32.023.456.07.135.044.25.116.345.215a.965.965 0 0 1 .222.386c.051.156.076.347.076.573v2.244h-.589v-2.25a.994.994 0 0 0-.079-.43.484.484 0 0 0-.231-.237.824.824 0 0 0-.373-.076.874.874 0 0 0-.706.345 1.253 1.253 0 0 0-.199.37c-.047.137-.07.283-.07.437zm4.139 1.842h-.585v-3.785c0-.247.044-.455.133-.623a.89.89 0 0 1 .389-.386c.169-.089.369-.133.601-.133.068 0 .135.004.203.013.07.008.137.021.203.038l-.032.478a.893.893 0 0 0-.152-.022 2.267 2.267 0 0 0-.164-.006.651.651 0 0 0-.323.076c-.089.049-.156.12-.203.215s-.07.212-.07.351v3.785zm.727-3.424v.449h-1.854v-.449h1.854zm.627 1.75v-.073c0-.247.036-.476.107-.687.072-.213.175-.398.31-.554.135-.158.299-.281.491-.367.192-.089.407-.133.646-.133.24 0 .457.044.649.133.194.086.359.209.494.367.137.156.241.341.313.554.072.211.108.44.108.687v.073c0 .247-.036.476-.108.687s-.176.396-.313.554a1.443 1.443 0 0 1-1.137.497c-.241 0-.457-.043-.649-.13a1.474 1.474 0 0 1-.494-.367c-.135-.158-.239-.343-.31-.554s-.107-.44-.107-.687zm.585-.073v.073c0 .171.02.332.06.484.04.15.1.283.181.399a.899.899 0 0 0 .307.275.9.9 0 0 0 .427.098c.16 0 .301-.033.421-.098.122-.068.224-.159.304-.275s.141-.249.181-.399c.042-.152.063-.313.063-.484v-.073c0-.169-.021-.328-.063-.478a1.214 1.214 0 0 0-.184-.402.855.855 0 0 0-.728-.379.869.869 0 0 0-.424.101.916.916 0 0 0-.304.278c-.08.116-.141.25-.181.402-.04.15-.06.309-.06.478zm8.443.155a2.836 2.836 0 0 1-.088.585c-.051.194-.127.372-.228.535s-.233.293-.395.392c-.16.097-.354.146-.582.146a.903.903 0 0 1-.383-.076.707.707 0 0 1-.266-.225.927.927 0 0 1-.143-.351 1.606 1.606 0 0 1-.013-.459l.161-1.753h.465l-.162 1.753c-.013.154-.009.28.01.377a.547.547 0 0 0 .095.225c.042.051.09.085.143.104a.48.48 0 0 0 .158.028.606.606 0 0 0 .339-.098.833.833 0 0 0 .25-.275c.07-.118.124-.254.162-.408a2.69 2.69 0 0 0 .07-.5c.015-.314 0-.603-.045-.867a2.395 2.395 0 0 0-.218-.703 1.608 1.608 0 0 0-.988-.842 2.528 2.528 0 0 0-.782-.111c-.266 0-.512.041-.737.123a1.94 1.94 0 0 0-.605.348 2.25 2.25 0 0 0-.459.547 2.921 2.921 0 0 0-.301.722 3.866 3.866 0 0 0-.126.861c-.015.316.002.608.051.873.049.264.126.499.234.706.11.209.248.385.415.529.166.146.36.255.579.329.22.076.464.114.734.114.186 0 .373-.022.563-.066a1.69 1.69 0 0 0 .481-.18l.12.361a1.64 1.64 0 0 1-.554.212 3.05 3.05 0 0 1-.624.07c-.32 0-.614-.044-.879-.133a2.125 2.125 0 0 1-1.209-.994c-.135-.238-.234-.511-.297-.816s-.087-.64-.073-1.003c.015-.346.066-.672.155-.978.091-.306.214-.583.37-.832s.342-.463.557-.642a2.4 2.4 0 0 1 .731-.418c.272-.097.567-.146.886-.146.325 0 .619.044.883.133s.495.216.693.383c.2.167.366.37.497.611s.226.513.285.816c.061.304.084.635.069.994zm-3.25.269c-.015.148-.015.28 0 .396s.043.214.085.294.097.141.164.184a.482.482 0 0 0 .437.016c.068-.032.134-.08.199-.146s.127-.151.184-.256a1.67 1.67 0 0 0 .142-.38l.209.228a1.9 1.9 0 0 1-.19.456c-.076.131-.161.241-.256.329s-.196.156-.304.203a.83.83 0 0 1-.323.066.815.815 0 0 1-.405-.098c-.116-.068-.21-.162-.282-.285s-.122-.268-.152-.437a2.268 2.268 0 0 1-.013-.57c.019-.222.058-.426.117-.614s.132-.356.218-.503c.089-.148.188-.273.297-.377a1.25 1.25 0 0 1 .354-.234.94.94 0 0 1 .383-.082c.228 0 .407.034.538.101.131.065.255.143.373.234l-.269.313c-.062-.059-.141-.114-.241-.165s-.216-.076-.351-.076c-.116 0-.225.03-.326.089s-.193.148-.275.266c-.08.118-.147.265-.203.44a2.877 2.877 0 0 0-.114.608zm6.314.658v-4.196h.589v4.861h-.538l-.051-.665zm-2.304-1.009v-.066c0-.262.032-.499.095-.712.066-.215.157-.4.275-.554a1.217 1.217 0 0 1 .984-.481 1.3 1.3 0 0 1 .563.114c.162.074.3.182.412.326.114.141.204.312.269.513s.111.427.136.68v.291a2.939 2.939 0 0 1-.136.677c-.065.2-.155.371-.269.513a1.13 1.13 0 0 1-.412.326 1.36 1.36 0 0 1-.57.111c-.2 0-.384-.043-.55-.13a1.298 1.298 0 0 1-.427-.364 1.768 1.768 0 0 1-.275-.551 2.434 2.434 0 0 1-.095-.693zm.588-.067v.066c0 .171.017.331.051.481.036.15.091.282.164.396s.168.204.282.269c.114.063.25.095.408.095a.855.855 0 0 0 .478-.123c.127-.082.228-.191.304-.326s.135-.282.177-.44v-.763a1.688 1.688 0 0 0-.111-.335 1.011 1.011 0 0 0-.183-.291.8.8 0 0 0-.275-.206.884.884 0 0 0-.383-.076.811.811 0 0 0-.414.101.806.806 0 0 0-.282.272 1.259 1.259 0 0 0-.164.399 2.17 2.17 0 0 0-.051.481zm4.766 1.804c-.238 0-.454-.04-.649-.12a1.46 1.46 0 0 1-.813-.87 1.945 1.945 0 0 1-.111-.665v-.133c0-.278.041-.526.123-.744.082-.219.194-.405.335-.557s.302-.267.481-.345.365-.117.557-.117c.245 0 .456.042.633.127.179.084.326.203.44.354.114.15.199.327.252.532.057.203.085.424.085.665v.263h-2.558v-.478h1.971v-.044c-.009-.152-.04-.3-.095-.443-.053-.143-.137-.262-.253-.354s-.274-.139-.475-.139a.796.796 0 0 0-.655.332c-.08.11-.143.244-.187.402a2.01 2.01 0 0 0-.066.547v.133c0 .162.022.315.066.459.046.141.113.266.199.373a.948.948 0 0 0 .32.253c.127.061.27.092.431.092.207 0 .382-.042.525-.127s.269-.197.377-.339l.356.282c-.077.112-.17.218-.283.32a1.342 1.342 0 0 1-.421.247c-.164.063-.36.095-.586.095zm3.144-.592.936-2.896h.595l-1.227 3.424h-.393l.089-.529zm-.782-2.895.964 2.911.065.513h-.393l-1.24-3.424h.604zm5.003 2.515a.506.506 0 0 0-.057-.234.49.49 0 0 0-.227-.199 1.79 1.79 0 0 0-.506-.158c-.19-.04-.361-.088-.514-.142s-.284-.121-.389-.199a.843.843 0 0 1-.243-.275.724.724 0 0 1-.089-.37c0-.135.032-.263.089-.383.061-.12.15-.227.259-.32s.243-.166.401-.218a1.6 1.6 0 0 1 .523-.079c.271 0 .506.049.701.146s.344.227.446.389c.105.16.158.339.158.535h-.587a.499.499 0 0 0-.085-.275c-.057-.091-.138-.166-.243-.225s-.235-.089-.389-.089a.889.889 0 0 0-.397.076.543.543 0 0 0-.219.187.462.462 0 0 0-.065.241c0 .063.008.12.032.171a.34.34 0 0 0 .117.136c.057.04.138.078.243.114.101.036.235.072.393.108.284.063.514.139.693.228.182.089.316.197.405.326s.134.285.134.468a.894.894 0 0 1-.364.734 1.305 1.305 0 0 1-.417.209 1.83 1.83 0 0 1-.539.073c-.304 0-.559-.054-.766-.161a1.193 1.193 0 0 1-.478-.418 1.017 1.017 0 0 1-.158-.541h.587a.6.6 0 0 0 .138.383c.085.093.19.159.312.199.122.038.243.057.365.057.158 0 .292-.021.401-.063s.19-.1.251-.174a.402.402 0 0 0 .085-.253zm2.916-2.515v.449h-1.851v-.449h1.851zm-1.223-.833h.583v3.408c0 .116.02.204.053.263.036.059.085.098.142.117s.117.028.182.028a.924.924 0 0 0 .154-.013l.122-.025.004.478a1.593 1.593 0 0 1-.453.063.928.928 0 0 1-.397-.085.659.659 0 0 1-.288-.285c-.069-.135-.101-.316-.101-.544v-3.405zm4.136 3.465v-2.633h.587v3.424h-.559l-.028-.791zm.109-.721.243-.006c0 .228-.024.439-.073.633-.045.192-.122.359-.227.5s-.243.252-.413.332a1.514 1.514 0 0 1-.624.117c-.166 0-.32-.024-.462-.073a.913.913 0 0 1-.352-.225c-.101-.101-.178-.233-.231-.396s-.081-.358-.081-.585v-2.209h.587v2.215c0 .154.016.282.049.383a.617.617 0 0 0 .146.237.502.502 0 0 0 .203.12.784.784 0 0 0 .231.035c.251 0 .446-.047.591-.142a.826.826 0 0 0 .316-.389c.065-.165.097-.347.097-.547zm3.658.848v-4.196h.587v4.861h-.535l-.053-.665zm-2.305-1.009v-.066c0-.262.032-.499.097-.712.065-.215.158-.4.275-.554s.263-.272.425-.354a1.22 1.22 0 0 1 .559-.127c.215 0 .401.038.563.114.162.074.3.182.409.326.113.141.207.312.271.513s.109.427.134.68v.291c-.02.251-.069.477-.134.677s-.158.371-.271.513c-.109.141-.247.25-.409.326a1.362 1.362 0 0 1-.571.111c-.198 0-.385-.043-.551-.13-.162-.086-.308-.208-.425-.364s-.211-.34-.275-.551a2.364 2.364 0 0 1-.097-.693zm.591-.067v.066c0 .171.016.331.049.481.036.15.093.282.166.396s.166.204.279.269a.833.833 0 0 0 .409.095c.194 0 .352-.041.478-.123s.227-.191.304-.326c.077-.135.134-.282.178-.44v-.763a1.631 1.631 0 0 0-.113-.335.967.967 0 0 0-.182-.291.79.79 0 0 0-.275-.206.875.875 0 0 0-.381-.076c-.162 0-.3.034-.417.101a.789.789 0 0 0-.279.272c-.073.114-.13.247-.166.399-.032.15-.049.31-.049.481zm3.978-1.683v3.424h-.587v-3.424h.587zm-.632-.909c0-.095.028-.175.085-.241.061-.065.146-.098.259-.098s.198.033.259.098a.338.338 0 0 1 .089.241.328.328 0 0 1-.089.234c-.061.063-.146.095-.259.095s-.198-.032-.259-.095a.342.342 0 0 1-.085-.234zm1.548 2.659v-.073c0-.247.036-.476.109-.687a1.6 1.6 0 0 1 .308-.554c.138-.158.3-.281.49-.367.194-.089.409-.133.648-.133s.458.044.648.133c.194.086.356.209.494.367.138.156.239.341.312.554.073.211.109.44.109.687v.073c0 .247-.036.476-.109.687s-.174.396-.312.554a1.49 1.49 0 0 1-.49.367c-.19.087-.405.13-.648.13-.239 0-.454-.043-.648-.13a1.505 1.505 0 0 1-.494-.367 1.637 1.637 0 0 1-.308-.554 2.088 2.088 0 0 1-.109-.687zm.587-.073v.073c0 .171.02.332.061.484.036.15.097.283.178.399s.186.208.308.275c.122.065.263.098.425.098s.304-.033.421-.098c.122-.068.223-.159.304-.275s.142-.249.182-.399a1.85 1.85 0 0 0 .061-.484v-.073c0-.169-.02-.328-.061-.478a1.198 1.198 0 0 0-.186-.402.838.838 0 0 0-.725-.379.864.864 0 0 0-.425.101.888.888 0 0 0-.304.278c-.081.116-.142.25-.178.402-.041.15-.061.309-.061.478zm3.403 1.436c0-.099.032-.182.093-.25.065-.07.154-.104.271-.104s.207.035.271.104a.361.361 0 0 1 .093.25.358.358 0 0 1-.093.247c-.065.067-.154.101-.271.101s-.207-.034-.271-.101a.358.358 0 0 1-.093-.247zm3.2-.107a.877.877 0 0 0 .385-.085.747.747 0 0 0 .292-.234.623.623 0 0 0 .13-.345h.559a1.06 1.06 0 0 1-.207.566 1.426 1.426 0 0 1-.49.421 1.43 1.43 0 0 1-.668.158c-.255 0-.482-.045-.672-.136s-.348-.215-.474-.373a1.68 1.68 0 0 1-.284-.544 2.304 2.304 0 0 1-.093-.655v-.133c0-.23.032-.447.093-.652.065-.207.158-.389.284-.547s.284-.283.474-.373a1.55 1.55 0 0 1 .672-.136c.267 0 .502.055.705.165.198.108.356.255.47.443.117.186.178.397.19.633h-.559c-.008-.141-.049-.269-.117-.383s-.162-.205-.279-.272a.775.775 0 0 0-.409-.104.897.897 0 0 0-.454.108.835.835 0 0 0-.288.285c-.069.118-.117.25-.15.396-.028.143-.045.29-.045.44v.133c0 .15.016.297.045.443s.077.277.15.396a.795.795 0 0 0 .288.285c.122.07.271.104.454.104zm1.996-1.256v-.073c0-.247.036-.476.109-.687a1.6 1.6 0 0 1 .308-.554c.138-.158.3-.281.49-.367.194-.089.409-.133.648-.133s.454.044.648.133c.194.086.356.209.494.367.138.156.239.341.312.554.073.211.109.44.109.687v.073c0 .247-.036.476-.109.687s-.174.396-.312.554a1.49 1.49 0 0 1-.49.367c-.19.087-.405.13-.648.13a1.55 1.55 0 0 1-.648-.13 1.505 1.505 0 0 1-.494-.367 1.637 1.637 0 0 1-.308-.554 2.088 2.088 0 0 1-.109-.687zm.588-.073v.073c0 .171.02.332.057.484.041.15.101.283.182.399s.186.208.308.275c.122.065.263.098.425.098s.3-.033.421-.098c.122-.068.223-.159.304-.275s.142-.249.182-.399a1.85 1.85 0 0 0 .061-.484v-.073c0-.169-.02-.328-.061-.478a1.198 1.198 0 0 0-.186-.402.838.838 0 0 0-.725-.379.864.864 0 0 0-.425.101.888.888 0 0 0-.304.278c-.081.116-.142.25-.182.402-.036.15-.057.309-.057.478zm3.978-.997v2.744h-.591v-3.424h.559l.032.68zm-.122.902-.271-.009c0-.234.032-.45.089-.649.061-.2.15-.374.263-.522.117-.148.263-.262.433-.342.174-.082.373-.123.604-.123.158 0 .308.023.442.07a.913.913 0 0 1 .352.212c.097.097.174.222.231.373.053.152.081.335.081.551v2.282h-.583v-2.253c0-.179-.032-.323-.093-.43s-.142-.186-.255-.234a.893.893 0 0 0-.385-.076c-.174 0-.316.031-.433.092s-.207.146-.279.253a1.188 1.188 0 0 0-.15.37 2.178 2.178 0 0 0-.045.437zm2.22-.323-.393.12c0-.188.032-.368.089-.541.061-.173.15-.327.263-.462.117-.135.259-.242.429-.32.166-.08.361-.12.579-.12.182 0 .344.024.486.073a.896.896 0 0 1 .584.608c.053.156.077.342.077.557v2.25h-.587v-2.256c0-.192-.032-.341-.093-.446a.471.471 0 0 0-.251-.225 1.038 1.038 0 0 0-.389-.066.742.742 0 0 0-.591.25.86.86 0 0 0-.154.263 1.025 1.025 0 0 0-.049.316z"/>
      <path d="M143.45 15.421a.668.668 0 0 0-.045-.253c-.027-.074-.077-.141-.149-.203s-.173-.12-.304-.177a4.013 4.013 0 0 0-.494-.18 5.49 5.49 0 0 1-.608-.225 2.268 2.268 0 0 1-.481-.291 1.245 1.245 0 0 1-.32-.383 1.072 1.072 0 0 1-.114-.503c0-.188.039-.359.117-.513.08-.154.193-.287.338-.399.148-.114.322-.201.523-.263.2-.063.422-.095.664-.095.342 0 .636.063.883.19.249.127.44.296.573.509.135.213.203.448.203.706h-.788a.809.809 0 0 0-.098-.402.66.66 0 0 0-.291-.278 1.046 1.046 0 0 0-.491-.101c-.188 0-.344.028-.469.085s-.217.134-.278.231a.606.606 0 0 0-.092.329c0 .086.02.166.06.237.04.07.101.135.184.196.082.059.186.115.31.168s.271.103.44.152c.255.076.478.16.668.253.19.091.348.194.475.31s.222.248.285.396c.063.146.095.311.095.497 0 .194-.039.369-.117.525-.078.154-.19.286-.335.396a1.586 1.586 0 0 1-.519.25 2.454 2.454 0 0 1-.671.085c-.222 0-.44-.03-.655-.089a1.935 1.935 0 0 1-.582-.269 1.39 1.39 0 0 1-.418-.456 1.293 1.293 0 0 1-.155-.642h.794c0 .15.025.277.076.383a.714.714 0 0 0 .218.259c.093.065.201.114.323.146.125.032.258.047.399.047.186 0 .341-.026.465-.079.127-.053.222-.127.285-.222s.095-.205.095-.329zm3.123-2.237v.557h-1.93v-.557h1.93zm-1.374-.839h.762v3.316c0 .105.015.187.045.244.032.055.075.092.13.111s.119.028.193.028c.053 0 .103-.003.152-.01s.088-.013.117-.019l.003.582a2.004 2.004 0 0 1-.222.051 1.603 1.603 0 0 1-.285.022c-.175 0-.331-.031-.465-.092-.135-.063-.241-.166-.316-.307s-.114-.329-.114-.563v-3.364zm4.152 3.456v-2.617h.766v3.424h-.721l-.045-.807zm.108-.712.256-.006c0 .23-.026.442-.076.636-.051.192-.128.36-.234.503a1.097 1.097 0 0 1-.405.332 1.37 1.37 0 0 1-.592.117c-.166 0-.32-.024-.459-.073s-.259-.123-.361-.225c-.099-.101-.176-.233-.231-.396s-.082-.357-.082-.582v-2.212h.763v2.218c0 .124.015.229.045.313.029.082.069.149.12.199s.11.086.177.108a.721.721 0 0 0 .215.032c.218 0 .388-.042.513-.127a.705.705 0 0 0 .269-.348c.055-.146.082-.309.082-.491zm3.658.81v-4.152h.766v4.861h-.693l-.073-.709zm-2.228-.965v-.066c0-.259.03-.496.092-.709.061-.215.15-.4.266-.554.116-.156.257-.275.424-.358a1.23 1.23 0 0 1 .563-.127c.207 0 .388.04.544.12s.289.195.399.345c.11.148.197.325.263.532.065.205.112.432.139.684v.212c-.027.245-.074.468-.139.671s-.153.378-.263.525-.243.262-.402.342c-.156.08-.339.12-.547.12-.207 0-.394-.043-.56-.13-.165-.086-.305-.208-.421-.364s-.205-.34-.266-.551a2.508 2.508 0 0 1-.092-.693zm.763-.067v.066c0 .156.014.302.041.437.03.135.075.254.136.358a.72.72 0 0 0 .237.241.7.7 0 0 0 .354.085c.173 0 .316-.038.427-.114s.199-.178.262-.307c.066-.131.11-.276.133-.437v-.573a1.415 1.415 0 0 0-.079-.348.948.948 0 0 0-.155-.282.656.656 0 0 0-.243-.19.77.77 0 0 0-.339-.07c-.139 0-.258.03-.354.089s-.177.14-.241.244c-.061.103-.107.224-.136.361s-.044.284-.044.44zm3.974-1.683v3.424h-.766v-3.424h.766zm-.816-.899a.39.39 0 0 1 .114-.288.437.437 0 0 1 .323-.117c.135 0 .242.039.32.117a.385.385 0 0 1 .117.288c0 .114-.039.209-.117.285s-.184.114-.32.114a.444.444 0 0 1-.323-.114.387.387 0 0 1-.114-.285zm1.636 2.649v-.073c0-.247.036-.476.108-.687.072-.213.175-.398.31-.554.137-.158.304-.281.5-.367a1.62 1.62 0 0 1 .671-.133c.251 0 .475.044.671.133.198.086.366.209.503.367.137.156.242.341.314.554.072.211.107.44.107.687v.073c0 .247-.036.476-.107.687s-.176.396-.314.554a1.459 1.459 0 0 1-.5.367c-.196.087-.419.13-.668.13a1.66 1.66 0 0 1-.674-.13 1.459 1.459 0 0 1-.5-.367c-.137-.158-.241-.343-.313-.554s-.108-.44-.108-.687zm.762-.073v.073c0 .154.016.3.047.437s.081.257.149.361c.068.103.154.185.26.244s.231.089.376.089c.141 0 .264-.03.367-.089.105-.059.192-.14.259-.244s.117-.224.149-.361c.034-.137.051-.283.051-.437v-.073c0-.152-.017-.295-.051-.43a1.133 1.133 0 0 0-.152-.364.723.723 0 0 0-.63-.339.732.732 0 0 0-.373.092c-.103.059-.189.141-.256.247s-.117.227-.149.364a1.858 1.858 0 0 0-.047.43zM141.367 27.544h17.823a.81.81 0 0 1 0 1.62h-17.823a.81.81 0 0 1 0-1.62z"/>
      <path d="M178.421 14.889h-1.199v-.63h1.199c.209 0 .378-.034.506-.101s.222-.16.282-.278a.895.895 0 0 0 .092-.411.91.91 0 0 0-.092-.408c-.059-.129-.153-.232-.282-.31s-.298-.117-.506-.117h-.956v3.975h-.794v-4.608h1.75c.356 0 .659.063.908.19.251.124.442.297.573.519.131.219.196.47.196.753 0 .297-.065.553-.196.766s-.322.377-.573.491c-.249.114-.552.171-.908.171zm2.253.045v-.073c0-.247.036-.476.107-.687.072-.213.175-.398.31-.554.137-.158.304-.281.5-.367a1.62 1.62 0 0 1 .671-.133c.251 0 .474.044.671.133.198.086.366.209.503.367.137.156.241.341.313.554.072.211.108.44.108.687v.073c0 .247-.036.476-.108.687s-.176.396-.313.554a1.459 1.459 0 0 1-.5.367c-.196.087-.419.13-.668.13a1.66 1.66 0 0 1-.674-.13 1.459 1.459 0 0 1-.5-.367c-.137-.158-.242-.343-.314-.554s-.107-.44-.107-.687zm.763-.073v.073c0 .154.016.3.047.437s.081.257.149.361.154.185.26.244a.758.758 0 0 0 .376.089.728.728 0 0 0 .627-.333c.068-.104.117-.224.149-.361.034-.137.051-.283.051-.437v-.073c0-.152-.017-.295-.051-.43a1.111 1.111 0 0 0-.152-.364.72.72 0 0 0-.629-.339.732.732 0 0 0-.373.092c-.103.059-.189.141-.256.247s-.117.227-.149.364a1.858 1.858 0 0 0-.047.43zm3.955-1.026v2.772h-.763v-3.424h.728l.035.652zm1.048-.674-.006.709a1.536 1.536 0 0 0-.31-.025.96.96 0 0 0-.345.057.656.656 0 0 0-.402.405 1.091 1.091 0 0 0-.063.326l-.174.013c0-.215.021-.415.063-.598s.106-.345.19-.484a.969.969 0 0 1 .323-.326.867.867 0 0 1 .452-.117c.047 0 .096.004.149.013a.668.668 0 0 1 .124.028zm2.335.023v.557h-1.931v-.557h1.931zm-1.374-.839h.763v3.316c0 .105.015.187.045.244.032.055.075.092.13.111s.119.028.193.028c.053 0 .103-.003.152-.01s.088-.013.117-.019l.003.582a1.61 1.61 0 0 1-.506.073c-.175 0-.33-.031-.465-.092-.135-.063-.241-.166-.316-.307s-.114-.329-.114-.563v-3.364zm3.124 4.263h-.763v-3.753c0-.255.048-.469.143-.642a.943.943 0 0 1 .414-.396c.179-.091.391-.136.636-.136.076 0 .151.005.224.016.074.008.146.022.215.041l-.019.589a.809.809 0 0 0-.139-.022 1.936 1.936 0 0 0-.158-.006.646.646 0 0 0-.301.066.44.44 0 0 0-.19.187.664.664 0 0 0-.063.304v3.753zm.705-3.424v.557h-1.994v-.557h1.994zm.538 1.75v-.073c0-.247.036-.476.108-.687.072-.213.175-.398.31-.554.137-.158.304-.281.5-.367a1.62 1.62 0 0 1 .671-.133c.251 0 .475.044.671.133.198.086.366.209.503.367.137.156.242.341.314.554.072.211.107.44.107.687v.073c0 .247-.036.476-.107.687s-.176.396-.314.554a1.459 1.459 0 0 1-.5.367c-.196.087-.419.13-.668.13a1.66 1.66 0 0 1-.674-.13 1.459 1.459 0 0 1-.5-.367c-.137-.158-.241-.343-.313-.554s-.108-.44-.108-.687zm.763-.073v.073c0 .154.016.3.047.437s.081.257.149.361c.068.103.154.185.26.244s.231.089.377.089c.141 0 .264-.03.367-.089.105-.059.192-.14.259-.244s.117-.224.149-.361c.034-.137.051-.283.051-.437v-.073c0-.152-.017-.295-.051-.43a1.111 1.111 0 0 0-.152-.364.723.723 0 0 0-.63-.339.732.732 0 0 0-.373.092c-.103.059-.189.141-.256.247s-.117.227-.149.364a1.858 1.858 0 0 0-.047.43zm4.006-3.114v4.861h-.766v-4.861h.766zm1.782 1.437v3.424h-.766v-3.424h.766zm-.817-.899a.39.39 0 0 1 .114-.288.437.437 0 0 1 .323-.117c.135 0 .241.039.32.117a.385.385 0 0 1 .117.288c0 .114-.039.209-.117.285s-.185.114-.32.114a.444.444 0 0 1-.323-.114.387.387 0 0 1-.114-.285zm1.636 2.649v-.073c0-.247.036-.476.107-.687.072-.213.175-.398.31-.554.137-.158.304-.281.5-.367a1.62 1.62 0 0 1 .671-.133c.251 0 .475.044.671.133.198.086.366.209.503.367.137.156.241.341.313.554.072.211.108.44.108.687v.073c0 .247-.036.476-.108.687s-.176.396-.313.554a1.459 1.459 0 0 1-.5.367c-.196.087-.418.13-.668.13a1.66 1.66 0 0 1-.674-.13 1.459 1.459 0 0 1-.5-.367c-.137-.158-.242-.343-.314-.554s-.107-.44-.107-.687zm.763-.073v.073c0 .154.016.3.048.437s.081.257.149.361c.067.103.154.185.259.244s.231.089.377.089a.728.728 0 0 0 .627-.333c.068-.104.117-.224.149-.361.034-.137.051-.283.051-.437v-.073c0-.152-.017-.295-.051-.43a1.111 1.111 0 0 0-.152-.364.723.723 0 0 0-.63-.339.729.729 0 0 0-.373.092c-.104.059-.189.141-.256.247s-.117.227-.149.364a1.858 1.858 0 0 0-.048.43zM222.329 15.108h.791c-.025.302-.11.571-.253.807-.143.234-.345.419-.604.554s-.575.203-.946.203c-.285 0-.541-.051-.769-.152a1.685 1.685 0 0 1-.586-.437 1.976 1.976 0 0 1-.373-.687 3 3 0 0 1-.126-.899v-.383c0-.331.043-.631.13-.899.089-.268.215-.497.38-.687.164-.192.362-.339.592-.44a1.94 1.94 0 0 1 .781-.152c.367 0 .677.067.93.203s.45.322.589.56c.141.238.228.512.26.82h-.791a1.474 1.474 0 0 0-.139-.509.723.723 0 0 0-.31-.323c-.137-.076-.316-.114-.538-.114-.181 0-.339.034-.475.101s-.248.167-.338.297a1.42 1.42 0 0 0-.206.484c-.045.19-.066.407-.066.652v.389c0 .232.02.443.06.633.042.188.105.349.19.484.086.135.196.239.329.313s.292.111.478.111c.226 0 .408-.036.548-.108a.723.723 0 0 0 .32-.313c.074-.139.122-.309.145-.509zm1.421-.174v-.073c0-.247.036-.476.108-.687.072-.213.175-.398.31-.554.137-.158.304-.281.5-.367a1.62 1.62 0 0 1 .671-.133c.251 0 .475.044.671.133.198.086.366.209.503.367.137.156.241.341.313.554.072.211.108.44.108.687v.073c0 .247-.036.476-.108.687s-.176.396-.313.554a1.459 1.459 0 0 1-.5.367c-.196.087-.418.13-.668.13a1.66 1.66 0 0 1-.674-.13 1.459 1.459 0 0 1-.5-.367c-.137-.158-.242-.343-.314-.554s-.108-.44-.108-.687zm.762-.073v.073c0 .154.016.3.047.437s.081.257.149.361c.067.103.154.185.259.244s.231.089.377.089a.728.728 0 0 0 .627-.333c.068-.104.117-.224.149-.361.034-.137.051-.283.051-.437v-.073c0-.152-.017-.295-.051-.43a1.111 1.111 0 0 0-.152-.364.723.723 0 0 0-.63-.339.729.729 0 0 0-.373.092c-.103.059-.189.141-.256.247s-.117.227-.149.364a1.858 1.858 0 0 0-.047.43zm3.947-.946v2.693h-.763v-3.424h.719l.044.731zm-.137.854-.247-.003c.002-.243.036-.465.101-.668.068-.203.16-.377.278-.522.12-.146.264-.257.431-.335.166-.08.352-.12.557-.12.164 0 .313.023.446.07.135.044.25.117.345.218a.986.986 0 0 1 .222.396c.051.16.076.358.076.592v2.212h-.766v-2.215a.856.856 0 0 0-.073-.389.41.41 0 0 0-.206-.206.774.774 0 0 0-.332-.063c-.131 0-.248.027-.351.082s-.191.13-.263.225c-.07.095-.123.205-.161.329s-.057.257-.057.399zm4.687-1.585v.557h-1.93v-.557h1.93zm-1.373-.839h.762v3.316c0 .105.015.187.045.244.032.055.075.092.13.111s.119.028.193.028c.053 0 .103-.003.152-.01s.088-.013.117-.019l.003.582a2.004 2.004 0 0 1-.222.051 1.603 1.603 0 0 1-.285.022c-.175 0-.331-.031-.465-.092-.135-.063-.241-.166-.316-.307s-.114-.329-.114-.563v-3.364zm4.022 3.576v-1.633c0-.122-.022-.228-.066-.316s-.112-.157-.203-.206a.69.69 0 0 0-.335-.073c-.124 0-.232.021-.323.063s-.162.099-.212.171-.076.153-.076.244h-.76c0-.135.033-.266.098-.392s.16-.239.285-.339c.125-.099.273-.177.446-.234s.367-.085.582-.085c.258 0 .485.043.684.13.201.087.358.217.471.392.116.173.174.39.174.652v1.522c0 .156.011.296.032.421.023.122.056.229.098.32v.051h-.782a1.343 1.343 0 0 1-.085-.313 2.555 2.555 0 0 1-.028-.373zm.11-1.396.006.472h-.548c-.141 0-.266.014-.373.041-.108.025-.197.063-.269.114a.497.497 0 0 0-.216.428c0 .091.021.174.064.25a.436.436 0 0 0 .184.174.645.645 0 0 0 .297.063.838.838 0 0 0 .686-.332.513.513 0 0 0 .108-.269l.247.339c-.025.087-.068.179-.13.278s-.141.194-.241.285a1.186 1.186 0 0 1-.819.303 1.3 1.3 0 0 1-.598-.133 1.063 1.063 0 0 1-.411-.364.945.945 0 0 1-.149-.522c0-.181.034-.342.101-.481a.948.948 0 0 1 .304-.354c.135-.095.3-.167.494-.215.194-.051.416-.076.665-.076h.598zm2.981 1.538a.747.747 0 0 0 .336-.073.634.634 0 0 0 .243-.209.58.58 0 0 0 .105-.307h.718c-.004.222-.069.423-.196.604s-.294.326-.503.434c-.209.105-.44.158-.693.158a1.63 1.63 0 0 1-.684-.133c-.194-.091-.355-.215-.484-.373s-.226-.341-.291-.547a2.27 2.27 0 0 1-.095-.665v-.111c0-.236.032-.458.095-.665.066-.209.162-.392.291-.551s.29-.282.484-.37c.194-.091.421-.136.68-.136.274 0 .515.055.721.165.207.108.369.258.487.453.12.192.183.416.187.671h-.718a.759.759 0 0 0-.095-.342.627.627 0 0 0-.235-.247.668.668 0 0 0-.357-.092.713.713 0 0 0-.383.095.642.642 0 0 0-.237.253 1.22 1.22 0 0 0-.123.358 2.261 2.261 0 0 0-.035.408v.111c0 .141.011.278.035.411s.063.252.12.358a.701.701 0 0 0 .24.25c.101.061.23.092.386.092zm3.687-2.879v.557h-1.931v-.557h1.931zm-1.374-.839h.763v3.316c0 .105.015.187.044.244.032.055.075.092.13.111s.119.028.193.028c.053 0 .103-.003.152-.01s.088-.013.117-.019l.003.582a1.953 1.953 0 0 1-.222.051 1.603 1.603 0 0 1-.285.022c-.175 0-.33-.031-.465-.092-.135-.063-.241-.166-.317-.307s-.114-.329-.114-.563v-3.364zm4.013 3.335a.382.382 0 0 0-.057-.206.494.494 0 0 0-.218-.171 2.071 2.071 0 0 0-.468-.139 4.209 4.209 0 0 1-.5-.142c-.15-.057-.279-.126-.386-.206s-.191-.175-.25-.285a.79.79 0 0 1-.088-.38c0-.139.03-.271.092-.396s.149-.234.263-.329c.114-.095.252-.17.414-.225.164-.055.348-.082.551-.082.287 0 .533.049.737.146.207.095.365.225.475.389.11.162.164.346.164.551h-.763a.48.48 0 0 0-.07-.253.48.48 0 0 0-.203-.193.69.69 0 0 0-.341-.076.743.743 0 0 0-.326.063.443.443 0 0 0-.19.158.403.403 0 0 0-.028.37.363.363 0 0 0 .114.123c.053.036.124.07.215.101.093.032.209.062.348.092.261.055.486.126.674.212.19.084.335.194.437.329a.814.814 0 0 1 .152.506.903.903 0 0 1-.377.744 1.396 1.396 0 0 1-.44.212 1.962 1.962 0 0 1-.57.076c-.31 0-.573-.055-.788-.165a1.261 1.261 0 0 1-.491-.427 1.01 1.01 0 0 1-.165-.544h.738a.57.57 0 0 0 .117.339.63.63 0 0 0 .266.18c.108.036.218.054.332.054a.961.961 0 0 0 .345-.054.494.494 0 0 0 .212-.152.359.359 0 0 0 .073-.222z"/>
    </symbol>
    <symbol id="icon-Frame" viewBox="0 0 32 32">
      <path d="m32 2.667-32 15 10.227 3.156L26 8.5 14.002 21.988l.01.003-.012-.003v7.345l5.735-5.576L27 25.999l5-23.333z"/>
    </symbol>
    <symbol id="icon-person-black" viewBox="0 0 32 32">
      <path d="M16 16c2.947 0 5.333-2.387 5.333-5.333S18.946 5.334 16 5.334c-2.947 0-5.333 2.387-5.333 5.333S13.054 16 16 16zm0 2.667c-3.56 0-10.667 1.787-10.667 5.333v1.333c0 .733.6 1.333 1.333 1.333h18.667c.733 0 1.333-.6 1.333-1.333V24c0-3.547-7.107-5.333-10.667-5.333z"/>
    </symbol>
    <symbol id="icon-phone-black" viewBox="0 0 24 32">
      <path d="m19.635 18.487-2.451-.28a1.92 1.92 0 0 0-1.582.55l-1.775 1.775a14.514 14.514 0 0 1-6.359-6.359l1.785-1.785c.415-.415.618-.994.55-1.582l-.28-2.432a1.931 1.931 0 0 0-1.92-1.708H5.934c-1.09 0-1.997.907-1.93 1.997.511 8.24 7.102 14.821 15.332 15.332 1.09.068 1.997-.839 1.997-1.93v-1.669a1.913 1.913 0 0 0-1.698-1.911z"/>
    </symbol>
    <symbol id="icon-email-black" viewBox="0 0 24 32">
      <path d="M20 8H4c-1.1 0-1.99.9-1.99 2L2 22c0 1.1.9 2 2 2h16c1.1 0 2-.9 2-2V10c0-1.1-.9-2-2-2zm-.4 4.25-7.07 4.42c-.32.2-.74.2-1.06 0L4.4 12.25a.85.85 0 1 1 .9-1.44L12 15l6.7-4.19a.85.85 0 1 1 .9 1.44z"/>
    </symbol>
    <symbol id="icon-close-black" viewBox="0 0 32 32">
      <path d="M32 3.223 28.777 0 16 12.777 3.223 0 0 3.223 12.777 16 0 28.777 3.223 32 16 19.223 28.777 32 32 28.777 19.223 16 32 3.223z"/>
    </symbol>
    <symbol id="icon-antenna" viewBox="0 0 32 32">
      <path d="m30.773 22.098-8.443-8.505.937-4.615c.242.094.499.144.758.146h.006a2.159 2.159 0 1 0-2.008-1.435l-4.96.605L8.972.161a.534.534 0 0 0-.377-.16.532.532 0 0 0-.373.155L6.709 1.66a.534.534 0 0 0 0 .754l.814.826a14.943 14.943 0 0 0 2.519 17.663.513.513 0 0 0 .146.098c-.034.18-.051.364-.052.547v6.187h-6.4a2.67 2.67 0 0 0-2.667 2.667v1.067c0 .295.239.533.533.533h24.533a.533.533 0 0 0 .533-.533v-1.067a2.67 2.67 0 0 0-2.667-2.667h-6.4v-2.742a15.09 15.09 0 0 0 3.049.32 14.854 14.854 0 0 0 7.04-1.783l.818.823a.534.534 0 0 0 .377.16.532.532 0 0 0 .373-.155l1.513-1.504a.534.534 0 0 0 0-.754zM23.28 6.233a1.067 1.067 0 1 1 .753 1.822h-.003a1.067 1.067 0 0 1-.747-1.823h-.002zm-1.256 3.505-.598 2.946-1.175-1.182 1.774-1.763zm-.605-.902-1.92 1.909-1.485-1.493 3.405-.415zM24.004 28.8a1.6 1.6 0 0 1 1.6 1.6v.533H2.137V30.4a1.6 1.6 0 0 1 1.6-1.6h20.267zm-7.467-2.133v1.067h-5.333v-1.067h5.333zM11.204 25.6v-4.053c0-1.294 1.196-2.347 2.667-2.347s2.667 1.053 2.667 2.347V25.6h-5.333zm6.4-1.696v-2.357c0-1.882-1.675-3.413-3.733-3.413a3.8 3.8 0 0 0-3.281 1.786A13.87 13.87 0 0 1 8.311 4.033l18.602 18.708a13.818 13.818 0 0 1-9.309 1.163zm11.289-.684L7.836 2.039l.755-.752 7.935 7.98c.004 0 .006.007.01.01l13.115 13.191-.757.752z"/>
      <path d="M13.876 20.267h-.005a1.6 1.6 0 1 0-.004 3.2h.005a1.6 1.6 0 1 0 .004-3.2zm.373 1.978a.534.534 0 0 1-.752-.756.534.534 0 0 1 .373-.155.534.534 0 0 1 .374.911h.005z"/>
    </symbol>
    <symbol id="icon-astronaut" viewBox="0 0 32 32">
      <path d="M31.974 4.524a.534.534 0 0 0-.43-.363l-1.91-.278-.855-1.731c-.179-.365-.777-.365-.956 0l-.855 1.731-1.91.278a.535.535 0 0 0-.296.91l1.383 1.348-.326 1.903c-.034.2.048.402.212.522a.53.53 0 0 0 .562.04l1.709-.899 1.709.899a.536.536 0 0 0 .775-.563l-.326-1.903 1.383-1.348a.536.536 0 0 0 .135-.547zm-2.463 1.327a.534.534 0 0 0-.153.472l.191 1.114-1-.526a.533.533 0 0 0-.498 0l-1.001.526.191-1.114a.534.534 0 0 0-.153-.472l-.81-.789 1.119-.163a.532.532 0 0 0 .402-.292l.5-1.013.5 1.013a.535.535 0 0 0 .402.292l1.119.163-.809.789zM26.133 20.522h-1.067v1.067h1.067v-1.067zM26.133 22.656h-1.067v1.067h1.067v-1.067zM27.2 21.589h-1.067v1.067H27.2v-1.067zM25.067 21.589H24v1.067h1.067v-1.067zM22.4 26.389h-1.067v1.067H22.4v-1.067zM22.4 28.522h-1.067v1.067H22.4v-1.067zM23.467 27.456H22.4v1.067h1.067v-1.067zM21.333 27.456h-1.067v1.067h1.067v-1.067zM16 24.256h-1.067v1.067H16v-1.067zM16 26.389h-1.067v1.067H16v-1.067zM17.067 25.322H16v1.067h1.067v-1.067zM14.933 25.322h-1.067v1.067h1.067v-1.067zM5.867 6.122H4.8v1.067h1.067V6.122zM5.867 8.255H4.8v1.067h1.067V8.255z"/>
      <path d="M6.933 7.189H5.866v1.067h1.067V7.189zM4.8 7.189H3.733v1.067H4.8V7.189z"/>
      <path d="M24.715 14.159a1.775 1.775 0 0 0-1.188-.705 1.778 1.778 0 0 0-1.34.352l-1.252.96-1.898 1.417-1.358-.541c2.421-1.086 4.114-3.508 4.114-6.32 0-3.823-3.123-6.933-6.961-6.933s-6.961 3.11-6.961 6.933a6.86 6.86 0 0 0 1.12 3.758l-2.764-.024h-.005c-.009 0-.015.004-.023.005a.515.515 0 0 0-.155.031l-.038.013c-.006.003-.013.003-.019.006l-3.233 1.596-.001.001-1.893.911a.397.397 0 0 0-.063.035 1.779 1.779 0 0 0-.598 2.295c.22.429.595.745 1.056.889a1.776 1.776 0 0 0 1.378-.128l1.388-.738 2.264-1.169 1.357-.008L2.2 22.211l-.002.001-1.339 1.333c-.316.315-.49.732-.49 1.178s.174.863.49 1.179c.325.323.752.485 1.179.485s.854-.162 1.18-.485l1.314-1.309 1.741-1.3.901.897-1.762 1.754-.002.001-1.339 1.333c-.316.315-.49.732-.49 1.178s.174.863.49 1.179c.325.323.753.485 1.18.485s.855-.162 1.18-.485l3.482-3.467.001-.002 1.01-1-.004-.004c.006-.006.015-.009.022-.015l5.166-5.658 3.471.494a.52.52 0 0 0 .262-.033c.018-.006.033-.015.05-.023.019-.01.039-.015.058-.027l3.213-2.133c.012-.008.018-.021.029-.029.013-.01.029-.014.041-.026l1.271-1.191c.662-.62.753-1.635.212-2.362zM2.13 17.77a.714.714 0 0 1-.558.052.717.717 0 0 1-.213-1.26l1.314-.632.449 1.313-.992.527zm3.498-1.828-1.548.8-.439-1.283 2.027-1.001-.04 1.484zm15.099-6.62a5.79 5.79 0 0 1-.599 2.559l-4.181-1.899a1.863 1.863 0 0 0-.788-1.388l1.464-4.86c2.378.756 4.105 2.974 4.105 5.588zm-11.789 0c0-3.235 2.644-5.867 5.894-5.867.253 0 .5.021.745.052l-1.432 4.754c-.019-.001-.037-.006-.057-.006-1.033 0-1.873.837-1.873 1.867s.84 1.867 1.873 1.867c.694 0 1.294-.383 1.618-.945l3.862 1.755a5.894 5.894 0 0 1-4.737 2.39c-3.25 0-5.894-2.632-5.894-5.867zm5.956.8c0 .441-.362.8-.806.8s-.806-.359-.806-.8c0-.441.362-.8.806-.8s.806.359.806.8zM2.465 25.146a.608.608 0 0 1-.854.001.592.592 0 0 1 0-.844l.962-.958.851.848-.959.955zm3.214 3.734a.608.608 0 0 1-.855.001.592.592 0 0 1 0-.844l.963-.959.852.848-.96.955zm3.481-3.469-.002.001-1.765 1.76-.852-.848 1.763-1.755.002-.001c.04-.04.065-.088.09-.135.007-.014.02-.026.026-.04.017-.041.019-.085.026-.129.003-.025.014-.047.014-.073 0-.036-.013-.07-.02-.106-.006-.032-.006-.065-.019-.095a.55.55 0 0 0-.091-.138c-.01-.012-.014-.027-.025-.038h-.001l-.001-.002-1.607-1.6c-.017-.017-.039-.024-.058-.038a.507.507 0 0 0-.087-.058.515.515 0 0 0-.093-.033.507.507 0 0 0-.103-.02.5.5 0 0 0-.095.005.53.53 0 0 0-.104.02.477.477 0 0 0-.094.045c-.02.011-.042.015-.061.029L4.23 23.486l-.901-.897 2.399-2.386 4.361 4.289-.928.919zm6.819-7.017c-.015-.002-.03.004-.045.003a.556.556 0 0 0-.3.075.492.492 0 0 0-.083.061c-.013.011-.028.017-.04.029l-4.698 5.146-4.328-4.257 2.833-2.818a.534.534 0 0 0-.379-.911v-.001l-2.219.013.028-1.607 3.104.027a6.947 6.947 0 0 0 4.981 2.101c.437 0 .864-.045 1.279-.123.04.032.079.065.13.085l2.41.96.152.758.178.885-3.003-.427zm4.041.178-.313-1.558 1.446-1.08.947 1.257-2.08 1.381zm3.754-2.831-.838.785-.931-1.236.831-.637a.735.735 0 0 1 .543-.143.718.718 0 0 1 .48.284.713.713 0 0 1-.085.947z"/>
      <path d="m13.602 18.544-2.143-2.133a.534.534 0 0 0-.753 0l-2.142 2.133a.537.537 0 0 0 0 .756l2.142 2.133a.536.536 0 0 0 .753 0l2.143-2.133a.535.535 0 0 0 0-.756zm-2.519 1.759-1.387-1.381 1.387-1.381 1.387 1.381-1.387 1.381zM17.164 5.071l-.258 1.036c.071.018 1.738.452 1.738 2.149h1.067c0-2.017-1.666-2.965-2.547-3.185zM19.711 9.322h-1.067v1.067h1.067V9.322z"/>
    </symbol>
    <symbol id="icon-clock" viewBox="0 0 32 32">
      <path d="M31.297 15.301C31.295 6.849 24.442-.002 15.989 0S.686 6.855.688 15.308a15.304 15.304 0 0 0 10.649 14.576.662.662 0 0 0 .529-.065.637.637 0 0 0 .283-.356l3.865-12.25a1.912 1.912 0 1 0-.84-3.635l-5.106-5.107a.637.637 0 0 0-.902.902l5.103 5.109a1.876 1.876 0 0 0 .536 2.309l-3.683 11.673C3.844 25.783.118 17.71 2.799 10.432S13.553-.572 20.831 2.109c7.278 2.681 11.004 10.754 8.323 18.032a14.042 14.042 0 0 1-7.462 7.973l-.398-1.874a.637.637 0 0 0-1.049-.344l-3.837 3.426a.637.637 0 0 0 .231 1.084l4.899 1.564a.638.638 0 0 0 .819-.74l-.391-1.839a15.255 15.255 0 0 0 9.329-14.089zm-15.305-.637a.638.638 0 1 1 0 1.277.638.638 0 0 1 0-1.277zm2.101 14.864 2.184-1.948.603 2.84-2.787-.892z"/>
      <path d="M15.354 3.185V4.46a.638.638 0 1 0 1.276 0V3.185a.638.638 0 0 0-1.276 0zM3.876 14.664a.638.638 0 0 0 0 1.276h1.275a.638.638 0 1 0 0-1.276H3.876zM28.108 15.939a.638.638 0 1 0 0-1.276h-1.275a.638.638 0 0 0 0 1.276h1.275z"/>
    </symbol>
    <symbol id="icon-diagram" viewBox="0 0 32 32">
      <path d="M14.925 14.965h1.066v4.798h-1.066v-4.797zM19.19 17.097h1.066v2.665H19.19v-2.665zM10.661 18.696h1.066v1.066h-1.066v-1.066zM7.463 18.163h1.066v1.599H7.463v-1.599z"/>
      <path d="M1.599 28.291h25.587a1.6 1.6 0 0 0 1.599-1.599V24.56a1.6 1.6 0 0 0-1.599-1.599h-.533V9.668L29.681 6.8a1.608 1.608 0 1 0-.746-.763L26.654 8.2V6.97a1.6 1.6 0 0 0-1.599-1.599H3.733A1.6 1.6 0 0 0 2.134 6.97v15.992h-.533a1.6 1.6 0 0 0-1.599 1.599v2.132a1.6 1.6 0 0 0 1.599 1.599zM30.384 4.837a.533.533 0 1 1 0 1.067.533.533 0 0 1 0-1.067zM3.198 6.969c0-.294.239-.533.533-.533h21.322c.294 0 .533.239.533.533v2.239l-1.066 1.013V8.035a.533.533 0 0 0-.533-.533H4.797a.533.533 0 0 0-.533.533v13.326c0 .294.239.533.533.533h19.19a.533.533 0 0 0 .533-.533v-9.674l1.066-1.01v12.284H3.198V6.969zm4.798 6.93a1.598 1.598 0 1 0 1.107 2.749l1.853.93a.532.532 0 0 0 .636-.123l3.939-4.431 3.872 2.901a.533.533 0 0 0 .686-.039l3.365-3.188v8.131H5.33V8.569h18.124v2.66l-3.771 3.572-3.904-2.927a.533.533 0 0 0-.718.072l-3.993 4.493-1.493-.746c.011-.064.018-.129.02-.193a1.6 1.6 0 0 0-1.599-1.599zm.533 1.599a.533.533 0 1 1-1.067 0 .533.533 0 0 1 1.067 0zm3.198 8.529h5.331v.533a.533.533 0 0 1-.533.533h-4.264a.533.533 0 0 1-.533-.533v-.533zm-10.661.533c0-.294.239-.533.533-.533h9.062v.533a1.6 1.6 0 0 0 1.599 1.599h4.264a1.6 1.6 0 0 0 1.599-1.599v-.533h9.062c.294 0 .533.239.533.533v2.132a.533.533 0 0 1-.533.533H1.598a.533.533 0 0 1-.533-.533V24.56z"/>
    </symbol>
    <symbol id="icon-facebook" viewBox="0 0 32 32">
      <path d="M21.329 5.313h2.921V.225C23.746.156 22.013 0 19.994 0c-4.212 0-7.097 2.649-7.097 7.519V12H8.249v5.688h4.648V32h5.699V17.689h4.46l.708-5.688h-5.169V8.082c.001-1.644.444-2.769 2.735-2.769z"/>
    </symbol>
    <symbol id="icon-instagram" viewBox="0 0 32 32">
      <path d="M31.969 9.408c-.075-1.7-.35-2.869-.744-3.882a7.803 7.803 0 0 0-1.85-2.838A7.867 7.867 0 0 0 26.543.844C25.524.45 24.361.175 22.661.1 20.948.019 20.404 0 16.06 0s-4.888.019-6.595.094c-1.7.075-2.869.35-3.882.744a7.803 7.803 0 0 0-2.838 1.85A7.867 7.867 0 0 0 .901 5.52C.507 6.539.232 7.702.157 9.402c-.081 1.713-.1 2.257-.1 6.601s.019 4.888.094 6.595c.075 1.7.35 2.869.744 3.882a7.895 7.895 0 0 0 1.85 2.838 7.867 7.867 0 0 0 2.832 1.844c1.019.394 2.182.669 3.882.744 1.706.075 2.25.094 6.595.094s4.888-.019 6.595-.094c1.7-.075 2.869-.35 3.882-.744a8.181 8.181 0 0 0 4.682-4.682c.394-1.019.669-2.182.744-3.882.075-1.707.094-2.25.094-6.595s-.006-4.888-.081-6.595zm-2.882 13.065c-.069 1.563-.331 2.407-.55 2.969a5.31 5.31 0 0 1-3.038 3.038c-.563.219-1.413.481-2.969.55-1.688.075-2.194.094-6.464.094s-4.782-.019-6.464-.094c-1.563-.069-2.407-.331-2.969-.55a4.926 4.926 0 0 1-1.838-1.194 4.974 4.974 0 0 1-1.194-1.838c-.219-.563-.481-1.413-.55-2.969-.075-1.688-.094-2.194-.094-6.464s.019-4.782.094-6.464c.069-1.563.331-2.407.55-2.969a4.868 4.868 0 0 1 1.2-1.838A4.974 4.974 0 0 1 6.639 3.55c.563-.219 1.413-.481 2.969-.55 1.688-.075 2.194-.094 6.464-.094 4.276 0 4.782.019 6.464.094 1.563.069 2.407.331 2.969.55a4.914 4.914 0 0 1 1.838 1.194 4.974 4.974 0 0 1 1.194 1.838c.219.563.481 1.413.55 2.969.075 1.688.094 2.194.094 6.464s-.019 4.77-.094 6.458z"/>
      <path d="M16.059 7.783c-4.538 0-8.22 3.682-8.22 8.22s3.682 8.22 8.22 8.22 8.22-3.682 8.22-8.22-3.682-8.22-8.22-8.22zm0 13.552a5.333 5.333 0 0 1 0-10.664 5.333 5.333 0 0 1 0 10.664zM26.524 7.458a1.919 1.919 0 1 1-3.838 0 1.919 1.919 0 0 1 3.838 0z"/>
    </symbol>
    <symbol id="icon-linkedin" viewBox="0 0 32 32">
      <path d="M31.992 32v-.001H32V20.263c0-5.741-1.236-10.164-7.948-10.164-3.227 0-5.392 1.771-6.276 3.449h-.093v-2.913h-6.364v21.364h6.627V21.42c0-2.785.528-5.479 3.977-5.479 3.399 0 3.449 3.179 3.449 5.657v10.401h6.62zM.528 10.636h6.635V32H.528V10.636zM3.843 0C1.722 0 0 1.721 0 3.843s1.721 3.879 3.843 3.879c2.121 0 3.843-1.757 3.843-3.879A3.846 3.846 0 0 0 3.843 0z"/>
    </symbol>
    <symbol id="icon-twitter" viewBox="0 0 32 32">
      <path d="M32 6.078c-1.19.522-2.458.868-3.78 1.036a6.523 6.523 0 0 0 2.886-3.626 13.11 13.11 0 0 1-4.16 1.588A6.574 6.574 0 0 0 22.154 3c-3.632 0-6.556 2.948-6.556 6.562 0 .52.044 1.02.152 1.496-5.454-.266-10.28-2.88-13.522-6.862a6.605 6.605 0 0 0-.898 3.316 6.57 6.57 0 0 0 2.914 5.452 6.479 6.479 0 0 1-2.964-.808v.072c0 3.188 2.274 5.836 5.256 6.446a6.548 6.548 0 0 1-1.72.216 5.8 5.8 0 0 1-1.242-.112c.85 2.598 3.262 4.508 6.13 4.57a13.182 13.182 0 0 1-8.134 2.798c-.538 0-1.054-.024-1.57-.09A18.469 18.469 0 0 0 10.064 29c12.072 0 18.672-10 18.672-18.668 0-.29-.01-.57-.024-.848A13.087 13.087 0 0 0 32 6.078z"/>
    </symbol>
  </defs>
</svg>
